Coordinates
version=1
nRows=14
nColumns=24
inDegrees=yes

Units are S.I. units (second, meters, Newtons, ...)
If the header above contains a line with 'inDegrees', this indicates whether rotational values are in degrees (yes) or radians (no).

endheader
time	pelvis_tilt	pelvis_list	pelvis_rotation	pelvis_tx	pelvis_ty	pelvis_tz	hip_flexion_r	hip_adduction_r	hip_rotation_r	knee_angle_r	ankle_angle_r	subtalar_angle_r	mtp_angle_r	hip_flexion_l	hip_adduction_l	hip_rotation_l	knee_angle_l	ankle_angle_l	subtalar_angle_l	mtp_angle_l	lumbar_extension	lumbar_bending	lumbar_rotation
      2.73000000	     23.13982049	      3.19822084	     -0.58550649	      0.10241724	      0.53009755	     -0.02978759	     69.57175979	     -5.62849379	      5.04020345	   -115.22797469	     25.00467721	      0.00000000	      0.00000000	     68.95476643	     -0.96506829	     -3.64248922	   -115.25737465	     22.68781142	      0.00000000	      0.00000000	    -66.88696302	     -2.81659203	     -1.34371133
      2.74000000	     22.39722529	      3.22519380	     -0.56694621	      0.10594329	      0.53111471	     -0.02992507	     69.97796473	     -5.64029767	      5.07531646	   -115.21761896	     25.20824171	      0.00000000	      0.00000000	     69.35073752	     -0.94769690	     -3.67051668	   -115.25265970	     22.97983395	      0.00000000	      0.00000000	    -67.09333680	     -2.75389474	     -1.37196427
      2.75000000	     21.32405330	      3.27038464	     -0.49785209	      0.10978641	      0.53192899	     -0.02997938	     70.69825269	     -5.61545490	      5.15270143	   -115.18614050	     25.41536254	      0.00000000	      0.00000000	     70.07176364	     -0.92107922	     -3.69104807	   -115.19568871	     23.28770313	      0.00000000	      0.00000000	    -66.75861210	     -2.68078059	     -1.55482781
      2.76000000	     20.39280608	      3.30993354	     -0.47650628	      0.11358928	      0.53335790	     -0.03010474	     71.18756905	     -5.56979021	      5.25076727	   -115.06857509	     25.63598743	      0.00000000	      0.00000000	     70.56631883	     -0.90040500	     -3.72745918	   -115.09896687	     23.57522193	      0.00000000	      0.00000000	    -66.54931263	     -2.62532345	     -1.70076155
      2.77000000	     19.48467658	      3.35522848	     -0.45693656	      0.11742510	      0.53509796	     -0.03012222	     71.60815797	     -5.47486356	      5.36762241	   -114.93340815	     25.91507142	      0.00000000	      0.00000000	     70.98363322	     -0.87541068	     -3.75680044	   -114.95544047	     23.90377305	      0.00000000	      0.00000000	    -66.36640686	     -2.55709953	     -1.81998986
      2.78000000	     18.67192848	      3.39336091	     -0.45899796	      0.12121795	      0.53729525	     -0.03010186	     71.86574753	     -5.34301398	      5.49219783	   -114.74764372	     26.26071640	      0.00000000	      0.00000000	     71.23473719	     -0.84055180	     -3.76288106	   -114.76034914	     24.28409329	      0.00000000	      0.00000000	    -66.21603600	     -2.48902819	     -1.88680205
      2.79000000	     17.83571953	      3.42900716	     -0.45946153	      0.12505652	      0.53976567	     -0.03008651	     72.10151945	     -5.18063311	      5.64197503	   -114.52858115	     26.60863438	      0.00000000	      0.00000000	     71.47310819	     -0.80796048	     -3.77721369	   -114.53123618	     24.65453066	      0.00000000	      0.00000000	    -66.04260377	     -2.41058812	     -1.93830798
      2.80000000	     16.85696428	      3.48406299	     -0.46963853	      0.12889190	      0.54234662	     -0.03006974	     72.45915136	     -5.00089396	      5.81380029	   -114.24297667	     26.87896451	      0.00000000	      0.00000000	     71.82524001	     -0.74462841	     -3.78552263	   -114.22876565	     24.94606092	      0.00000000	      0.00000000	    -65.55260821	     -2.37379334	     -2.01149858
      2.81000000	     16.24558568	      3.50257275	     -0.47512565	      0.13244531	      0.54578232	     -0.03000925	     72.35725511	     -4.82863977	      5.94835135	   -113.89752578	     27.09761464	      0.00000000	      0.00000000	     71.73685951	     -0.68070585	     -3.75275518	   -113.87448443	     25.16897416	      0.00000000	      0.00000000	    -65.53140810	     -2.30177011	     -2.01275534
      2.82000000	     15.43578073	      3.53892508	     -0.53302745	      0.13622463	      0.54903808	     -0.02999890	     72.44274342	     -4.62489048	      6.09593581	   -113.53797951	     27.61594692	      0.00000000	      0.00000000	     71.80616831	     -0.61775353	     -3.74324971	   -113.50864219	     25.73546805	      0.00000000	      0.00000000	    -65.12177212	     -2.26031038	     -2.03538124
      2.83000000	     14.73626850	      3.56508320	     -0.57569250	      0.13981219	      0.55275342	     -0.02995378	     72.37815310	     -4.43553489	      6.23062130	   -113.11355857	     27.94420707	      0.00000000	      0.00000000	     71.73920180	     -0.54982399	     -3.72155129	   -113.07494307	     26.09957700	      0.00000000	      0.00000000	    -64.83351415	     -2.20488755	     -2.04105292
      2.84000000	     13.98639447	      3.59104923	     -0.61999729	      0.14338002	      0.55655016	     -0.02992548	     72.36045525	     -4.26498252	      6.34969640	   -112.65407371	     28.21903558	      0.00000000	      0.00000000	     71.70945240	     -0.47377799	     -3.69004142	   -112.60640168	     26.42205471	      0.00000000	      0.00000000	    -64.38176498	     -2.19964667	     -1.98760549
      2.85000000	     13.43659128	      3.59522963	     -0.67220892	      0.14683133	      0.56082004	     -0.02991007	     72.09540399	     -4.12513341	      6.43279836	   -112.15340907	     28.48995380	      0.00000000	      0.00000000	     71.43595379	     -0.40436593	     -3.63392902	   -112.10599816	     26.72998046	      0.00000000	      0.00000000	    -64.15932232	     -2.15761355	     -2.00581471
      2.86000000	     12.88230725	      3.59309229	     -0.73713661	      0.15029878	      0.56523142	     -0.02984415	     71.80435176	     -3.98757302	      6.47669679	   -111.61697458	     28.87228122	      0.00000000	      0.00000000	     71.13395379	     -0.33397221	     -3.58105414	   -111.56816409	     27.18518624	      0.00000000	      0.00000000	    -63.83945618	     -2.14589315	     -2.02995462
